<mxfile host="app.diagrams.net" modified="2021-02-28T07:31:27.948Z" agent="5.0 (Windows NT 10.0; Win64; x64) AppleWebKit/537.36 (KHTML, like Gecko) Chrome/88.0.4324.182 Safari/537.36 Edg/88.0.705.81" etag="KI_tSwTV_AXeJms4I_vW" version="14.4.3" type="github">
  <diagram id="Vwi1EXBxK2TPIhp4Lb0i" name="Page-1">
    <mxGraphModel dx="1520" dy="1230" grid="1" gridSize="10" guides="1" tooltips="1" connect="1" arrows="1" fold="1" page="1" pageScale="1" pageWidth="1654" pageHeight="1169" math="0" shadow="0">
      <root>
        <mxCell id="0" />
        <mxCell id="1" parent="0" />
        <mxCell id="MmGtoHiQ9Y3kxAFWbWzb-74" style="edgeStyle=orthogonalEdgeStyle;rounded=0;orthogonalLoop=1;jettySize=auto;html=1;exitX=0.5;exitY=1;exitDx=0;exitDy=0;entryX=0.5;entryY=1;entryDx=0;entryDy=0;" edge="1" parent="1" source="MmGtoHiQ9Y3kxAFWbWzb-53" target="MmGtoHiQ9Y3kxAFWbWzb-9">
          <mxGeometry relative="1" as="geometry">
            <Array as="points">
              <mxPoint x="1370" y="740" />
              <mxPoint x="710" y="740" />
            </Array>
          </mxGeometry>
        </mxCell>
        <mxCell id="MmGtoHiQ9Y3kxAFWbWzb-75" style="edgeStyle=orthogonalEdgeStyle;rounded=0;orthogonalLoop=1;jettySize=auto;html=1;exitX=0.25;exitY=1;exitDx=0;exitDy=0;entryX=0.75;entryY=1;entryDx=0;entryDy=0;" edge="1" parent="1" source="MmGtoHiQ9Y3kxAFWbWzb-53" target="MmGtoHiQ9Y3kxAFWbWzb-9">
          <mxGeometry relative="1" as="geometry">
            <Array as="points">
              <mxPoint x="1355" y="730" />
              <mxPoint x="730" y="730" />
            </Array>
          </mxGeometry>
        </mxCell>
        <mxCell id="MmGtoHiQ9Y3kxAFWbWzb-37" style="edgeStyle=orthogonalEdgeStyle;rounded=0;orthogonalLoop=1;jettySize=auto;html=1;exitX=0.25;exitY=1;exitDx=0;exitDy=0;entryX=0.75;entryY=1;entryDx=0;entryDy=0;" edge="1" parent="1" source="MmGtoHiQ9Y3kxAFWbWzb-7" target="MmGtoHiQ9Y3kxAFWbWzb-2">
          <mxGeometry relative="1" as="geometry">
            <Array as="points">
              <mxPoint x="490" y="720" />
              <mxPoint x="330" y="720" />
            </Array>
          </mxGeometry>
        </mxCell>
        <mxCell id="MmGtoHiQ9Y3kxAFWbWzb-41" style="edgeStyle=orthogonalEdgeStyle;rounded=0;orthogonalLoop=1;jettySize=auto;html=1;exitX=0.75;exitY=1;exitDx=0;exitDy=0;entryX=1;entryY=0.75;entryDx=0;entryDy=0;jumpStyle=arc;" edge="1" parent="1" source="MmGtoHiQ9Y3kxAFWbWzb-7" target="MmGtoHiQ9Y3kxAFWbWzb-12">
          <mxGeometry relative="1" as="geometry">
            <Array as="points">
              <mxPoint x="530" y="750" />
              <mxPoint x="1180" y="750" />
              <mxPoint x="1180" y="530" />
            </Array>
          </mxGeometry>
        </mxCell>
        <mxCell id="MmGtoHiQ9Y3kxAFWbWzb-76" style="edgeStyle=orthogonalEdgeStyle;rounded=0;orthogonalLoop=1;jettySize=auto;html=1;exitX=1;exitY=0.25;exitDx=0;exitDy=0;jumpStyle=arc;" edge="1" parent="1" source="MmGtoHiQ9Y3kxAFWbWzb-9" target="MmGtoHiQ9Y3kxAFWbWzb-53">
          <mxGeometry relative="1" as="geometry">
            <Array as="points">
              <mxPoint x="770" y="510" />
              <mxPoint x="770" y="270" />
              <mxPoint x="1370" y="270" />
            </Array>
          </mxGeometry>
        </mxCell>
        <mxCell id="MmGtoHiQ9Y3kxAFWbWzb-77" style="edgeStyle=orthogonalEdgeStyle;rounded=0;orthogonalLoop=1;jettySize=auto;html=1;exitX=0.25;exitY=0;exitDx=0;exitDy=0;entryX=0.25;entryY=0;entryDx=0;entryDy=0;" edge="1" parent="1" source="MmGtoHiQ9Y3kxAFWbWzb-10" target="MmGtoHiQ9Y3kxAFWbWzb-53">
          <mxGeometry relative="1" as="geometry">
            <Array as="points">
              <mxPoint x="890" y="280" />
              <mxPoint x="1355" y="280" />
            </Array>
          </mxGeometry>
        </mxCell>
        <mxCell id="MmGtoHiQ9Y3kxAFWbWzb-1" value="PipelineController" style="rounded=0;whiteSpace=wrap;html=1;direction=south;" vertex="1" parent="1">
          <mxGeometry x="270" y="770" width="880" height="40" as="geometry" />
        </mxCell>
        <mxCell id="MmGtoHiQ9Y3kxAFWbWzb-15" style="edgeStyle=orthogonalEdgeStyle;rounded=0;orthogonalLoop=1;jettySize=auto;html=1;exitX=1;exitY=0.5;exitDx=0;exitDy=0;" edge="1" parent="1" source="MmGtoHiQ9Y3kxAFWbWzb-2" target="MmGtoHiQ9Y3kxAFWbWzb-3">
          <mxGeometry relative="1" as="geometry" />
        </mxCell>
        <mxCell id="MmGtoHiQ9Y3kxAFWbWzb-38" style="edgeStyle=orthogonalEdgeStyle;rounded=0;orthogonalLoop=1;jettySize=auto;html=1;exitX=0;exitY=0.977;exitDx=0;exitDy=0;entryX=0.25;entryY=1;entryDx=0;entryDy=0;exitPerimeter=0;" edge="1" parent="1" source="MmGtoHiQ9Y3kxAFWbWzb-1" target="MmGtoHiQ9Y3kxAFWbWzb-2">
          <mxGeometry relative="1" as="geometry" />
        </mxCell>
        <mxCell id="MmGtoHiQ9Y3kxAFWbWzb-2" value="PC" style="rounded=0;whiteSpace=wrap;html=1;" vertex="1" parent="1">
          <mxGeometry x="270" y="500" width="80" height="40" as="geometry" />
        </mxCell>
        <mxCell id="MmGtoHiQ9Y3kxAFWbWzb-16" style="edgeStyle=orthogonalEdgeStyle;rounded=0;orthogonalLoop=1;jettySize=auto;html=1;exitX=1;exitY=0.5;exitDx=0;exitDy=0;entryX=0;entryY=0.5;entryDx=0;entryDy=0;" edge="1" parent="1" source="MmGtoHiQ9Y3kxAFWbWzb-3" target="MmGtoHiQ9Y3kxAFWbWzb-7">
          <mxGeometry relative="1" as="geometry" />
        </mxCell>
        <mxCell id="MmGtoHiQ9Y3kxAFWbWzb-28" style="edgeStyle=orthogonalEdgeStyle;rounded=0;orthogonalLoop=1;jettySize=auto;html=1;exitX=0;exitY=0.841;exitDx=0;exitDy=0;entryX=0.5;entryY=1;entryDx=0;entryDy=0;exitPerimeter=0;jumpStyle=arc;" edge="1" parent="1" source="MmGtoHiQ9Y3kxAFWbWzb-1" target="MmGtoHiQ9Y3kxAFWbWzb-3">
          <mxGeometry relative="1" as="geometry" />
        </mxCell>
        <mxCell id="MmGtoHiQ9Y3kxAFWbWzb-3" value="IF&lt;br&gt;|&lt;br&gt;ID" style="rounded=0;whiteSpace=wrap;html=1;" vertex="1" parent="1">
          <mxGeometry x="390" y="340" width="40" height="360" as="geometry" />
        </mxCell>
        <mxCell id="MmGtoHiQ9Y3kxAFWbWzb-19" style="edgeStyle=orthogonalEdgeStyle;rounded=0;orthogonalLoop=1;jettySize=auto;html=1;exitX=1;exitY=0.25;exitDx=0;exitDy=0;entryX=0;entryY=0.5;entryDx=0;entryDy=0;" edge="1" parent="1" source="MmGtoHiQ9Y3kxAFWbWzb-4" target="MmGtoHiQ9Y3kxAFWbWzb-8">
          <mxGeometry relative="1" as="geometry" />
        </mxCell>
        <mxCell id="MmGtoHiQ9Y3kxAFWbWzb-20" style="edgeStyle=orthogonalEdgeStyle;rounded=0;orthogonalLoop=1;jettySize=auto;html=1;exitX=1;exitY=0.5;exitDx=0;exitDy=0;entryX=-0.03;entryY=0.482;entryDx=0;entryDy=0;entryPerimeter=0;" edge="1" parent="1" source="MmGtoHiQ9Y3kxAFWbWzb-4" target="MmGtoHiQ9Y3kxAFWbWzb-9">
          <mxGeometry relative="1" as="geometry" />
        </mxCell>
        <mxCell id="MmGtoHiQ9Y3kxAFWbWzb-29" style="edgeStyle=orthogonalEdgeStyle;rounded=0;orthogonalLoop=1;jettySize=auto;html=1;exitX=-0.01;exitY=0.614;exitDx=0;exitDy=0;entryX=0.5;entryY=1;entryDx=0;entryDy=0;exitPerimeter=0;jumpStyle=arc;" edge="1" parent="1" source="MmGtoHiQ9Y3kxAFWbWzb-1" target="MmGtoHiQ9Y3kxAFWbWzb-4">
          <mxGeometry relative="1" as="geometry" />
        </mxCell>
        <mxCell id="MmGtoHiQ9Y3kxAFWbWzb-39" style="edgeStyle=orthogonalEdgeStyle;rounded=0;orthogonalLoop=1;jettySize=auto;html=1;exitX=0.25;exitY=0;exitDx=0;exitDy=0;entryX=0.75;entryY=0;entryDx=0;entryDy=0;" edge="1" parent="1" source="MmGtoHiQ9Y3kxAFWbWzb-4" target="MmGtoHiQ9Y3kxAFWbWzb-7">
          <mxGeometry relative="1" as="geometry">
            <Array as="points">
              <mxPoint x="600" y="300" />
              <mxPoint x="530" y="300" />
            </Array>
          </mxGeometry>
        </mxCell>
        <mxCell id="MmGtoHiQ9Y3kxAFWbWzb-4" value="ID&lt;br&gt;|&lt;br&gt;EX" style="rounded=0;whiteSpace=wrap;html=1;" vertex="1" parent="1">
          <mxGeometry x="590" y="340" width="40" height="360" as="geometry" />
        </mxCell>
        <mxCell id="MmGtoHiQ9Y3kxAFWbWzb-23" style="edgeStyle=orthogonalEdgeStyle;rounded=0;orthogonalLoop=1;jettySize=auto;html=1;exitX=1;exitY=0.5;exitDx=0;exitDy=0;entryX=0;entryY=0.5;entryDx=0;entryDy=0;" edge="1" parent="1" source="MmGtoHiQ9Y3kxAFWbWzb-5" target="MmGtoHiQ9Y3kxAFWbWzb-10">
          <mxGeometry relative="1" as="geometry" />
        </mxCell>
        <mxCell id="MmGtoHiQ9Y3kxAFWbWzb-30" style="edgeStyle=orthogonalEdgeStyle;rounded=0;orthogonalLoop=1;jettySize=auto;html=1;exitX=-0.003;exitY=0.386;exitDx=0;exitDy=0;entryX=0.5;entryY=1;entryDx=0;entryDy=0;exitPerimeter=0;jumpStyle=arc;" edge="1" parent="1" source="MmGtoHiQ9Y3kxAFWbWzb-1" target="MmGtoHiQ9Y3kxAFWbWzb-5">
          <mxGeometry relative="1" as="geometry" />
        </mxCell>
        <mxCell id="MmGtoHiQ9Y3kxAFWbWzb-5" value="EX&lt;br&gt;|&lt;br&gt;MEM" style="rounded=0;whiteSpace=wrap;html=1;" vertex="1" parent="1">
          <mxGeometry x="790" y="340" width="40" height="360" as="geometry" />
        </mxCell>
        <mxCell id="MmGtoHiQ9Y3kxAFWbWzb-25" style="edgeStyle=orthogonalEdgeStyle;rounded=0;orthogonalLoop=1;jettySize=auto;html=1;exitX=1;exitY=0.5;exitDx=0;exitDy=0;entryX=0;entryY=0.5;entryDx=0;entryDy=0;" edge="1" parent="1" source="MmGtoHiQ9Y3kxAFWbWzb-6" target="MmGtoHiQ9Y3kxAFWbWzb-12">
          <mxGeometry relative="1" as="geometry" />
        </mxCell>
        <mxCell id="MmGtoHiQ9Y3kxAFWbWzb-26" style="edgeStyle=orthogonalEdgeStyle;rounded=0;orthogonalLoop=1;jettySize=auto;html=1;exitX=1;exitY=0.25;exitDx=0;exitDy=0;entryX=0;entryY=0.5;entryDx=0;entryDy=0;" edge="1" parent="1" source="MmGtoHiQ9Y3kxAFWbWzb-6" target="MmGtoHiQ9Y3kxAFWbWzb-11">
          <mxGeometry relative="1" as="geometry" />
        </mxCell>
        <mxCell id="MmGtoHiQ9Y3kxAFWbWzb-27" style="edgeStyle=orthogonalEdgeStyle;rounded=0;orthogonalLoop=1;jettySize=auto;html=1;exitX=1;exitY=0.75;exitDx=0;exitDy=0;entryX=0;entryY=0.5;entryDx=0;entryDy=0;" edge="1" parent="1" source="MmGtoHiQ9Y3kxAFWbWzb-6" target="MmGtoHiQ9Y3kxAFWbWzb-13">
          <mxGeometry relative="1" as="geometry" />
        </mxCell>
        <mxCell id="MmGtoHiQ9Y3kxAFWbWzb-40" style="edgeStyle=orthogonalEdgeStyle;rounded=0;orthogonalLoop=1;jettySize=auto;html=1;exitX=0;exitY=0.159;exitDx=0;exitDy=0;entryX=0.5;entryY=1;entryDx=0;entryDy=0;exitPerimeter=0;jumpStyle=arc;" edge="1" parent="1" source="MmGtoHiQ9Y3kxAFWbWzb-1" target="MmGtoHiQ9Y3kxAFWbWzb-6">
          <mxGeometry relative="1" as="geometry" />
        </mxCell>
        <mxCell id="MmGtoHiQ9Y3kxAFWbWzb-6" value="MEM&lt;br&gt;|&lt;br&gt;WB" style="rounded=0;whiteSpace=wrap;html=1;" vertex="1" parent="1">
          <mxGeometry x="990" y="340" width="40" height="360" as="geometry" />
        </mxCell>
        <mxCell id="MmGtoHiQ9Y3kxAFWbWzb-17" style="edgeStyle=orthogonalEdgeStyle;rounded=0;orthogonalLoop=1;jettySize=auto;html=1;exitX=1;exitY=0.5;exitDx=0;exitDy=0;entryX=0;entryY=0.5;entryDx=0;entryDy=0;" edge="1" parent="1" source="MmGtoHiQ9Y3kxAFWbWzb-7" target="MmGtoHiQ9Y3kxAFWbWzb-4">
          <mxGeometry relative="1" as="geometry" />
        </mxCell>
        <mxCell id="MmGtoHiQ9Y3kxAFWbWzb-36" style="edgeStyle=orthogonalEdgeStyle;rounded=0;orthogonalLoop=1;jettySize=auto;html=1;exitX=0.5;exitY=1;exitDx=0;exitDy=0;entryX=0;entryY=0.727;entryDx=0;entryDy=0;entryPerimeter=0;" edge="1" parent="1" source="MmGtoHiQ9Y3kxAFWbWzb-7" target="MmGtoHiQ9Y3kxAFWbWzb-1">
          <mxGeometry relative="1" as="geometry" />
        </mxCell>
        <mxCell id="MmGtoHiQ9Y3kxAFWbWzb-7" value="Decoder" style="rounded=0;whiteSpace=wrap;html=1;" vertex="1" parent="1">
          <mxGeometry x="470" y="480" width="80" height="80" as="geometry" />
        </mxCell>
        <mxCell id="MmGtoHiQ9Y3kxAFWbWzb-21" style="edgeStyle=orthogonalEdgeStyle;rounded=0;orthogonalLoop=1;jettySize=auto;html=1;exitX=0.5;exitY=1;exitDx=0;exitDy=0;entryX=0.5;entryY=0;entryDx=0;entryDy=0;" edge="1" parent="1" source="MmGtoHiQ9Y3kxAFWbWzb-8" target="MmGtoHiQ9Y3kxAFWbWzb-9">
          <mxGeometry relative="1" as="geometry" />
        </mxCell>
        <mxCell id="MmGtoHiQ9Y3kxAFWbWzb-8" value="MULT&lt;br&gt;DIV" style="rounded=0;whiteSpace=wrap;html=1;" vertex="1" parent="1">
          <mxGeometry x="670" y="410" width="80" height="40" as="geometry" />
        </mxCell>
        <mxCell id="MmGtoHiQ9Y3kxAFWbWzb-22" style="edgeStyle=orthogonalEdgeStyle;rounded=0;orthogonalLoop=1;jettySize=auto;html=1;exitX=1;exitY=0.5;exitDx=0;exitDy=0;entryX=0;entryY=0.5;entryDx=0;entryDy=0;" edge="1" parent="1" source="MmGtoHiQ9Y3kxAFWbWzb-9" target="MmGtoHiQ9Y3kxAFWbWzb-5">
          <mxGeometry relative="1" as="geometry" />
        </mxCell>
        <mxCell id="MmGtoHiQ9Y3kxAFWbWzb-34" style="edgeStyle=orthogonalEdgeStyle;rounded=0;orthogonalLoop=1;jettySize=auto;html=1;exitX=0.25;exitY=1;exitDx=0;exitDy=0;entryX=0;entryY=0.523;entryDx=0;entryDy=0;entryPerimeter=0;jumpStyle=arc;" edge="1" parent="1" source="MmGtoHiQ9Y3kxAFWbWzb-9" target="MmGtoHiQ9Y3kxAFWbWzb-1">
          <mxGeometry relative="1" as="geometry" />
        </mxCell>
        <mxCell id="MmGtoHiQ9Y3kxAFWbWzb-9" value="ALU" style="rounded=0;whiteSpace=wrap;html=1;" vertex="1" parent="1">
          <mxGeometry x="670" y="500" width="80" height="40" as="geometry" />
        </mxCell>
        <mxCell id="MmGtoHiQ9Y3kxAFWbWzb-24" style="edgeStyle=orthogonalEdgeStyle;rounded=0;orthogonalLoop=1;jettySize=auto;html=1;exitX=1;exitY=0.5;exitDx=0;exitDy=0;entryX=0;entryY=0.5;entryDx=0;entryDy=0;" edge="1" parent="1" source="MmGtoHiQ9Y3kxAFWbWzb-10" target="MmGtoHiQ9Y3kxAFWbWzb-6">
          <mxGeometry relative="1" as="geometry" />
        </mxCell>
        <mxCell id="MmGtoHiQ9Y3kxAFWbWzb-71" style="edgeStyle=orthogonalEdgeStyle;rounded=0;orthogonalLoop=1;jettySize=auto;html=1;exitX=0.5;exitY=1;exitDx=0;exitDy=0;entryX=0;entryY=0.273;entryDx=0;entryDy=0;entryPerimeter=0;jumpStyle=arc;" edge="1" parent="1" source="MmGtoHiQ9Y3kxAFWbWzb-10" target="MmGtoHiQ9Y3kxAFWbWzb-1">
          <mxGeometry relative="1" as="geometry" />
        </mxCell>
        <mxCell id="MmGtoHiQ9Y3kxAFWbWzb-72" style="edgeStyle=orthogonalEdgeStyle;rounded=0;orthogonalLoop=1;jettySize=auto;html=1;exitX=0.75;exitY=0;exitDx=0;exitDy=0;entryX=1;entryY=0.25;entryDx=0;entryDy=0;" edge="1" parent="1" source="MmGtoHiQ9Y3kxAFWbWzb-10" target="MmGtoHiQ9Y3kxAFWbWzb-12">
          <mxGeometry relative="1" as="geometry">
            <Array as="points">
              <mxPoint x="930" y="310" />
              <mxPoint x="1180" y="310" />
              <mxPoint x="1180" y="510" />
            </Array>
          </mxGeometry>
        </mxCell>
        <mxCell id="MmGtoHiQ9Y3kxAFWbWzb-10" value="MEM" style="rounded=0;whiteSpace=wrap;html=1;" vertex="1" parent="1">
          <mxGeometry x="870" y="500" width="80" height="40" as="geometry" />
        </mxCell>
        <mxCell id="MmGtoHiQ9Y3kxAFWbWzb-55" style="edgeStyle=orthogonalEdgeStyle;rounded=0;orthogonalLoop=1;jettySize=auto;html=1;exitX=1;exitY=0.5;exitDx=0;exitDy=0;entryX=0;entryY=0.5;entryDx=0;entryDy=0;" edge="1" parent="1" source="MmGtoHiQ9Y3kxAFWbWzb-11" target="MmGtoHiQ9Y3kxAFWbWzb-48">
          <mxGeometry relative="1" as="geometry" />
        </mxCell>
        <mxCell id="MmGtoHiQ9Y3kxAFWbWzb-11" value="RegFIle" style="rounded=0;whiteSpace=wrap;html=1;" vertex="1" parent="1">
          <mxGeometry x="1070" y="410" width="80" height="40" as="geometry" />
        </mxCell>
        <mxCell id="MmGtoHiQ9Y3kxAFWbWzb-54" style="edgeStyle=orthogonalEdgeStyle;rounded=0;orthogonalLoop=1;jettySize=auto;html=1;exitX=1;exitY=0.5;exitDx=0;exitDy=0;entryX=0;entryY=0.5;entryDx=0;entryDy=0;" edge="1" parent="1" source="MmGtoHiQ9Y3kxAFWbWzb-12" target="MmGtoHiQ9Y3kxAFWbWzb-52">
          <mxGeometry relative="1" as="geometry" />
        </mxCell>
        <mxCell id="MmGtoHiQ9Y3kxAFWbWzb-12" value="CP0" style="rounded=0;whiteSpace=wrap;html=1;" vertex="1" parent="1">
          <mxGeometry x="1070" y="500" width="80" height="40" as="geometry" />
        </mxCell>
        <mxCell id="MmGtoHiQ9Y3kxAFWbWzb-56" style="edgeStyle=orthogonalEdgeStyle;rounded=0;orthogonalLoop=1;jettySize=auto;html=1;exitX=1;exitY=0.5;exitDx=0;exitDy=0;entryX=0;entryY=0.5;entryDx=0;entryDy=0;" edge="1" parent="1" source="MmGtoHiQ9Y3kxAFWbWzb-13" target="MmGtoHiQ9Y3kxAFWbWzb-53">
          <mxGeometry relative="1" as="geometry" />
        </mxCell>
        <mxCell id="MmGtoHiQ9Y3kxAFWbWzb-13" value="HILO" style="rounded=0;whiteSpace=wrap;html=1;" vertex="1" parent="1">
          <mxGeometry x="1070" y="590" width="80" height="40" as="geometry" />
        </mxCell>
        <mxCell id="MmGtoHiQ9Y3kxAFWbWzb-78" style="edgeStyle=orthogonalEdgeStyle;rounded=0;orthogonalLoop=1;jettySize=auto;html=1;exitX=0.25;exitY=0;exitDx=0;exitDy=0;entryX=0.25;entryY=0;entryDx=0;entryDy=0;" edge="1" parent="1" target="MmGtoHiQ9Y3kxAFWbWzb-48">
          <mxGeometry relative="1" as="geometry">
            <mxPoint x="1235" y="280" as="sourcePoint" />
          </mxGeometry>
        </mxCell>
        <mxCell id="MmGtoHiQ9Y3kxAFWbWzb-48" value="RegRead&lt;br&gt;Proxy" style="rounded=0;whiteSpace=wrap;html=1;" vertex="1" parent="1">
          <mxGeometry x="1220" y="390" width="60" height="80" as="geometry" />
        </mxCell>
        <mxCell id="MmGtoHiQ9Y3kxAFWbWzb-82" style="edgeStyle=orthogonalEdgeStyle;rounded=0;orthogonalLoop=1;jettySize=auto;html=1;exitX=0.25;exitY=0;exitDx=0;exitDy=0;entryX=0.25;entryY=0;entryDx=0;entryDy=0;" edge="1" parent="1" target="MmGtoHiQ9Y3kxAFWbWzb-52">
          <mxGeometry relative="1" as="geometry">
            <mxPoint x="1295" y="280" as="sourcePoint" />
          </mxGeometry>
        </mxCell>
        <mxCell id="MmGtoHiQ9Y3kxAFWbWzb-52" value="CP0Read&lt;br&gt;Proxy" style="rounded=0;whiteSpace=wrap;html=1;" vertex="1" parent="1">
          <mxGeometry x="1280" y="480" width="60" height="80" as="geometry" />
        </mxCell>
        <mxCell id="MmGtoHiQ9Y3kxAFWbWzb-53" value="HILORead&lt;br&gt;Proxy" style="rounded=0;whiteSpace=wrap;html=1;" vertex="1" parent="1">
          <mxGeometry x="1340" y="570" width="60" height="80" as="geometry" />
        </mxCell>
        <mxCell id="MmGtoHiQ9Y3kxAFWbWzb-79" style="edgeStyle=orthogonalEdgeStyle;rounded=0;orthogonalLoop=1;jettySize=auto;html=1;exitX=0.5;exitY=0;exitDx=0;exitDy=0;entryX=0.5;entryY=0;entryDx=0;entryDy=0;jumpStyle=arc;" edge="1" parent="1" target="MmGtoHiQ9Y3kxAFWbWzb-48">
          <mxGeometry relative="1" as="geometry">
            <mxPoint x="1250" y="270" as="sourcePoint" />
          </mxGeometry>
        </mxCell>
        <mxCell id="MmGtoHiQ9Y3kxAFWbWzb-81" style="edgeStyle=orthogonalEdgeStyle;rounded=0;orthogonalLoop=1;jettySize=auto;html=1;exitX=0.5;exitY=0;exitDx=0;exitDy=0;entryX=0.5;entryY=0;entryDx=0;entryDy=0;jumpStyle=arc;" edge="1" parent="1" target="MmGtoHiQ9Y3kxAFWbWzb-52">
          <mxGeometry relative="1" as="geometry">
            <mxPoint x="1310" y="270" as="sourcePoint" />
          </mxGeometry>
        </mxCell>
        <mxCell id="MmGtoHiQ9Y3kxAFWbWzb-66" style="edgeStyle=orthogonalEdgeStyle;rounded=0;orthogonalLoop=1;jettySize=auto;html=1;exitX=0.75;exitY=0;exitDx=0;exitDy=0;entryX=0.5;entryY=0;entryDx=0;entryDy=0;jumpStyle=arc;" edge="1" parent="1" source="MmGtoHiQ9Y3kxAFWbWzb-48" target="MmGtoHiQ9Y3kxAFWbWzb-7">
          <mxGeometry relative="1" as="geometry">
            <Array as="points">
              <mxPoint x="1265" y="260" />
              <mxPoint x="510" y="260" />
            </Array>
          </mxGeometry>
        </mxCell>
        <mxCell id="MmGtoHiQ9Y3kxAFWbWzb-67" style="edgeStyle=orthogonalEdgeStyle;rounded=0;orthogonalLoop=1;jettySize=auto;html=1;exitX=0.75;exitY=0;exitDx=0;exitDy=0;entryX=0.75;entryY=0;entryDx=0;entryDy=0;jumpStyle=arc;" edge="1" parent="1" source="MmGtoHiQ9Y3kxAFWbWzb-52" target="MmGtoHiQ9Y3kxAFWbWzb-4">
          <mxGeometry relative="1" as="geometry">
            <Array as="points">
              <mxPoint x="1325" y="250" />
              <mxPoint x="620" y="250" />
            </Array>
          </mxGeometry>
        </mxCell>
        <mxCell id="MmGtoHiQ9Y3kxAFWbWzb-68" style="edgeStyle=orthogonalEdgeStyle;rounded=0;orthogonalLoop=1;jettySize=auto;html=1;entryX=0.5;entryY=0;entryDx=0;entryDy=0;jumpStyle=arc;" edge="1" parent="1" target="MmGtoHiQ9Y3kxAFWbWzb-10">
          <mxGeometry relative="1" as="geometry">
            <mxPoint x="910" y="250" as="sourcePoint" />
          </mxGeometry>
        </mxCell>
      </root>
    </mxGraphModel>
  </diagram>
</mxfile>
